<?xml version="1.0" encoding="UTF-8" standalone="no"?>
<svg
   xmlns:dc="http://purl.org/dc/elements/1.1/"
   xmlns:cc="http://creativecommons.org/ns#"
   xmlns:rdf="http://www.w3.org/1999/02/22-rdf-syntax-ns#"
   xmlns:svg="http://www.w3.org/2000/svg"
   xmlns="http://www.w3.org/2000/svg"
   xmlns:sodipodi="http://sodipodi.sourceforge.net/DTD/sodipodi-0.dtd"
   xmlns:inkscape="http://www.inkscape.org/namespaces/inkscape"
   viewBox="0 0 16 16"
   id="svg2"
   version="1.1"
   inkscape:version="0.91 r13725"
   sodipodi:docname="view.svg">
  <metadata
     id="metadata14">
    <rdf:RDF>
      <cc:Work
         rdf:about="">
        <dc:format>image/svg+xml</dc:format>
        <dc:type
           rdf:resource="http://purl.org/dc/dcmitype/StillImage" />
      </cc:Work>
    </rdf:RDF>
  </metadata>
  <defs
     id="defs12" />
  <sodipodi:namedview
     pagecolor="#ffffff"
     bordercolor="#666666"
     borderopacity="1"
     objecttolerance="10"
     gridtolerance="10"
     guidetolerance="10"
     inkscape:pageopacity="0"
     inkscape:pageshadow="2"
     inkscape:window-width="1198"
     inkscape:window-height="749"
     id="namedview10"
     showgrid="false"
     inkscape:zoom="14.75"
     inkscape:cx="8"
     inkscape:cy="10.711864"
     inkscape:window-x="47"
     inkscape:window-y="24"
     inkscape:window-maximized="0"
     inkscape:current-layer="svg2" />
  <path
     style="color:#bebebe;fill:#bebebe;fill-opacity:1"
     id="path24-3"
     d="m -4.9989e-4,0.78099998 0,0.99999992 0,11.0000001 0,1 0.99999996,0 4.99999983,0 c 0.175,0 0.525,0.152 0.813,0.344 0.287,0.192 0.469,0.375 0.469,0.375 l 0.719,0.719 0.719,-0.75 c 0,0 0.896,-0.688 1.2810001,-0.688 l 5,0 1,0 0,-1 0,-11.0000001 0,-0.99999993 -1,0 -5,0 c -0.8770001,0 -1.5600001,0.34799993 -2.0310001,0.68799993 -0.03,-0.021 -0.031,-0.01 -0.063,-0.031 -0.461,-0.304 -1.078,-0.65599993 -1.906,-0.65599993 l -4.9999998,0 -0.99999999,0 z m 1.99999999,1.99999962 3.9999998,0 c 0.138,0 0.515,0.147 0.813,0.344 0.298,0.196 0.5,0.375 0.5,0.375 l 0.719,0.688 0.688,-0.719 c 0,0 0.9,-0.688 1.2810001,-0.688 l 4,0 0,9.0000004 -4,0 c -0.8770001,0 -1.5600001,0.347 -2.0310001,0.688 -0.02,-0.014 -0.011,-0.018 -0.031,-0.031 -0.46,-0.308 -1.102,-0.656 -1.938,-0.656 l -3.9999998,0 0,-9.0000004 z"
     inkscape:connector-curvature="0" />
  <g
     id="g4197"
     transform="translate(11.050847,15.389828)">
    <rect
       width="3"
       x="5.0508475"
       y="-10.29661"
       rx="0.375"
       height="2"
       transform="scale(-1,1)"
       style="color:#bebebe;opacity:1;fill:#bebebe;fill-opacity:1"
       id="rect26-6" />
    <rect
       width="3"
       x="5.0508475"
       y="-7.2966104"
       rx="0.375"
       height="2"
       transform="scale(-1,1)"
       style="color:#bebebe;opacity:1;fill:#bebebe;fill-opacity:1"
       id="rect28-7" />
    <rect
       width="3"
       x="-1.9491526"
       y="-10.29661"
       rx="0.375"
       height="2"
       transform="scale(-1,1)"
       style="color:#bebebe;opacity:1;fill:#bebebe;fill-opacity:1"
       id="rect30-5" />
    <rect
       width="3"
       x="-1.9491526"
       y="-7.2966104"
       rx="0.375"
       height="2"
       transform="scale(-1,1)"
       style="color:#bebebe;opacity:1;fill:#bebebe;fill-opacity:1"
       id="rect32-3" />
  </g>
</svg>
